# Blender v2.83.5 OBJ File: ''
# www.blender.org
mtllib Покровка, ул., 12.mtl
o Cube
v 8.300000 4.500000 -6.000000
v 8.300000 -1.500000 -6.000000
v 8.300000 4.500000 6.000000
v 8.300000 -1.500000 6.000000
v -8.300000 4.500000 -6.000000
v -8.300000 -1.500000 -6.000000
v -8.300000 4.500000 6.000000
v -8.300000 -1.500000 6.000000
vt 0.625000 0.500000
vt 0.875000 0.500000
vt 0.875000 0.750000
vt 0.625000 0.750000
vt 0.375000 0.750000
vt 0.625000 1.000000
vt 0.375000 1.000000
vt 0.375000 0.000000
vt 0.625000 0.000000
vt 0.625000 0.250000
vt 0.375000 0.250000
vt 0.125000 0.500000
vt 0.375000 0.500000
vt 0.125000 0.750000
vn 0.0000 1.0000 0.0000
vn 0.0000 0.0000 1.0000
vn -1.0000 0.0000 0.0000
vn 0.0000 -1.0000 0.0000
vn 1.0000 0.0000 0.0000
vn 0.0000 0.0000 -1.0000
usemtl Material
s off
f 1/1/1 5/2/1 7/3/1 3/4/1
f 4/5/2 3/4/2 7/6/2 8/7/2
f 8/8/3 7/9/3 5/10/3 6/11/3
f 6/12/4 2/13/4 4/5/4 8/14/4
f 2/13/5 1/1/5 3/4/5 4/5/5
f 6/11/6 5/10/6 1/1/6 2/13/6
o Areas:building.002
v -825.323364 155.208374 -492.420135
v -817.965149 154.386353 -471.726898
v -812.154236 153.870575 -455.386017
v -843.056580 154.188446 -446.760590
v -846.028809 154.687805 -457.463257
v -903.759094 156.469635 -444.742706
v -913.310303 157.363403 -455.643219
v -922.082275 157.623001 -452.893372
v -928.082397 158.225616 -471.529083
v -924.575806 158.152054 -472.280853
v -911.629333 157.880539 -475.070251
v -865.687805 156.604126 -484.981628
v -825.323364 164.225616 -492.420135
v -865.687805 164.225616 -484.981628
v -911.629333 164.225616 -475.070251
v -924.575806 164.225616 -472.280853
v -928.082397 164.225616 -471.529083
v -922.082275 164.225616 -452.893372
v -913.310303 164.225616 -455.643219
v -903.759094 164.225616 -444.742706
v -903.057739 164.225616 -442.843536
v -882.285522 164.225616 -448.165192
v -846.028809 164.225616 -457.463257
v -843.056580 164.225616 -446.760590
v -812.154236 164.225616 -455.386017
v -817.965149 164.225616 -471.726898
v -903.057739 156.355682 -442.843536
vn 0.0000 1.0000 0.0000
vn -0.1812 0.0000 -0.9834
vn -0.2109 0.0000 -0.9775
vn -0.2106 0.0000 -0.9776
vn -0.2096 0.0000 -0.9778
vn -0.9519 0.0000 0.3065
vn 0.2991 0.0000 0.9542
vn -0.7521 0.0000 0.6590
vn -0.9635 0.0000 0.2676
vn 0.2688 0.0000 0.9632
vn 0.9422 0.0000 -0.3351
vn 0.9422 0.0000 -0.3350
usemtl None
s off
f 21//7 22//7 23//7 24//7 25//7 26//7 27//7 28//7 29//7 30//7 31//7 32//7 33//7 34//7
f 20//8 22//8 21//8 9//8
f 19//9 23//9 22//9 20//9
f 18//10 24//10 23//10 19//10
f 17//11 25//11 24//11 18//11
f 16//12 26//12 25//12 17//12
f 15//13 27//13 26//13 16//13
f 14//14 28//14 27//14 15//14
f 12//15 32//15 31//15 13//15
f 11//16 33//16 32//16 12//16
f 10//17 34//17 33//17 11//17
f 9//18 21//18 34//18 10//18
